<mxfile host="app.diagrams.net" modified="2024-03-03T15:24:39.075Z" agent="Mozilla/5.0 (Windows NT 10.0; Win64; x64; rv:123.0) Gecko/20100101 Firefox/123.0" etag="8HG5GtH4E2g-8JLTTW6T" version="24.0.1" type="device">
  <diagram name="1 oldal" id="O07grY8dv0cEGp4q1tDg">
    <mxGraphModel dx="1050" dy="577" grid="1" gridSize="10" guides="1" tooltips="1" connect="1" arrows="1" fold="1" page="1" pageScale="1" pageWidth="827" pageHeight="1169" math="0" shadow="0">
      <root>
        <mxCell id="0" />
        <mxCell id="1" parent="0" />
        <mxCell id="786_mQaQIO7tlaPHeYwT-1" value="Food App" style="swimlane;whiteSpace=wrap;html=1;fillColor=#00CC00;" vertex="1" parent="1">
          <mxGeometry width="720" height="470" as="geometry" />
        </mxCell>
        <mxCell id="786_mQaQIO7tlaPHeYwT-2" value="" style="rounded=0;whiteSpace=wrap;html=1;fillColor=#000000;" vertex="1" parent="1">
          <mxGeometry y="20" width="720" height="450" as="geometry" />
        </mxCell>
        <mxCell id="786_mQaQIO7tlaPHeYwT-3" value="" style="rounded=0;whiteSpace=wrap;html=1;fillColor=#000000;strokeColor=#CFCFCF;" vertex="1" parent="1">
          <mxGeometry y="20" width="150" height="450" as="geometry" />
        </mxCell>
        <mxCell id="786_mQaQIO7tlaPHeYwT-4" value="&lt;font color=&quot;#00cc00&quot;&gt;Rendelés felvétele&lt;/font&gt;" style="rounded=0;whiteSpace=wrap;html=1;fillColor=#000000;strokeColor=#00CC00;" vertex="1" parent="1">
          <mxGeometry y="60" width="150" height="50" as="geometry" />
        </mxCell>
        <mxCell id="786_mQaQIO7tlaPHeYwT-5" value="&lt;font style=&quot;font-size: 22px;&quot; color=&quot;#00cc00&quot;&gt;Menü&lt;/font&gt;" style="text;html=1;align=center;verticalAlign=middle;whiteSpace=wrap;rounded=0;" vertex="1" parent="1">
          <mxGeometry y="20" width="60" height="30" as="geometry" />
        </mxCell>
        <mxCell id="786_mQaQIO7tlaPHeYwT-6" value="" style="rounded=0;whiteSpace=wrap;html=1;fillColor=#000000;strokeColor=#00CC00;" vertex="1" parent="1">
          <mxGeometry y="110" width="150" height="50" as="geometry" />
        </mxCell>
        <mxCell id="786_mQaQIO7tlaPHeYwT-7" value="" style="rounded=0;whiteSpace=wrap;html=1;fillColor=#00CC00;strokeColor=#00CC00;" vertex="1" parent="1">
          <mxGeometry y="160" width="150" height="50" as="geometry" />
        </mxCell>
        <mxCell id="786_mQaQIO7tlaPHeYwT-8" value="&lt;font color=&quot;#ff0000&quot;&gt;Kijelentkezés&lt;/font&gt;" style="rounded=0;whiteSpace=wrap;html=1;fillColor=#000000;strokeColor=#00CC00;" vertex="1" parent="1">
          <mxGeometry x="25" y="430" width="100" height="30" as="geometry" />
        </mxCell>
        <mxCell id="786_mQaQIO7tlaPHeYwT-9" value="" style="rounded=0;whiteSpace=wrap;html=1;fillColor=#000000;strokeColor=#CFCFCF;" vertex="1" parent="1">
          <mxGeometry x="150" y="20" width="290" height="450" as="geometry" />
        </mxCell>
        <mxCell id="786_mQaQIO7tlaPHeYwT-10" style="edgeStyle=orthogonalEdgeStyle;rounded=0;orthogonalLoop=1;jettySize=auto;html=1;exitX=0.75;exitY=1;exitDx=0;exitDy=0;" edge="1" parent="1">
          <mxGeometry relative="1" as="geometry">
            <mxPoint x="370" y="270" as="sourcePoint" />
            <mxPoint x="310" y="270" as="targetPoint" />
          </mxGeometry>
        </mxCell>
        <mxCell id="786_mQaQIO7tlaPHeYwT-11" style="edgeStyle=orthogonalEdgeStyle;rounded=0;orthogonalLoop=1;jettySize=auto;html=1;exitX=0.5;exitY=1;exitDx=0;exitDy=0;" edge="1" parent="1">
          <mxGeometry relative="1" as="geometry">
            <mxPoint x="480" y="57.5" as="sourcePoint" />
            <mxPoint x="480" y="57.5" as="targetPoint" />
          </mxGeometry>
        </mxCell>
        <mxCell id="786_mQaQIO7tlaPHeYwT-12" value="&lt;div&gt;&lt;font color=&quot;#00cc00&quot;&gt;Alkalmazottak kezelése&lt;br&gt;&lt;/font&gt;&lt;/div&gt;" style="rounded=0;whiteSpace=wrap;html=1;fillColor=#000000;strokeColor=#00CC00;" vertex="1" parent="1">
          <mxGeometry y="210" width="150" height="50" as="geometry" />
        </mxCell>
        <mxCell id="786_mQaQIO7tlaPHeYwT-13" value="&lt;div&gt;&lt;font color=&quot;#00cc00&quot;&gt;Statisztikák&lt;br&gt;&lt;/font&gt;&lt;/div&gt;" style="rounded=0;whiteSpace=wrap;html=1;fillColor=#000000;strokeColor=#00CC00;" vertex="1" parent="1">
          <mxGeometry y="260" width="150" height="50" as="geometry" />
        </mxCell>
        <mxCell id="786_mQaQIO7tlaPHeYwT-14" value="&lt;div&gt;&lt;font color=&quot;#00cc00&quot;&gt;Aktív rendelések&lt;/font&gt;&lt;/div&gt;" style="rounded=1;whiteSpace=wrap;html=1;fillColor=#000000;" vertex="1" parent="1">
          <mxGeometry x="10" y="120" width="130" height="30" as="geometry" />
        </mxCell>
        <mxCell id="786_mQaQIO7tlaPHeYwT-15" value="" style="rounded=1;whiteSpace=wrap;html=1;fillColor=#000000;strokeColor=#CFCFCF;" vertex="1" parent="1">
          <mxGeometry x="150" y="70" width="290" height="140" as="geometry" />
        </mxCell>
        <mxCell id="786_mQaQIO7tlaPHeYwT-16" value="&lt;div style=&quot;font-size: 26px;&quot;&gt;&lt;font style=&quot;font-size: 26px;&quot; color=&quot;#00cc00&quot;&gt;Aktív rendelések&lt;/font&gt;&lt;/div&gt;" style="text;html=1;align=center;verticalAlign=middle;whiteSpace=wrap;rounded=0;" vertex="1" parent="1">
          <mxGeometry x="160" y="30" width="200" height="30" as="geometry" />
        </mxCell>
        <mxCell id="786_mQaQIO7tlaPHeYwT-17" value="" style="rounded=1;whiteSpace=wrap;html=1;fillColor=#333333;" vertex="1" parent="1">
          <mxGeometry x="160" y="75" width="20" height="15" as="geometry" />
        </mxCell>
        <mxCell id="786_mQaQIO7tlaPHeYwT-18" value="Text" style="text;html=1;align=center;verticalAlign=middle;whiteSpace=wrap;rounded=0;" vertex="1" parent="1">
          <mxGeometry x="380" y="230" width="60" height="30" as="geometry" />
        </mxCell>
        <mxCell id="786_mQaQIO7tlaPHeYwT-19" value="&lt;font style=&quot;font-size: 14px;&quot; color=&quot;#00cc00&quot;&gt;Minta János 1&lt;/font&gt;" style="text;html=1;align=center;verticalAlign=middle;whiteSpace=wrap;rounded=0;" vertex="1" parent="1">
          <mxGeometry x="190" y="75" width="90" height="30" as="geometry" />
        </mxCell>
        <mxCell id="786_mQaQIO7tlaPHeYwT-20" value="&lt;font style=&quot;font-size: 11px;&quot; color=&quot;#00cc00&quot;&gt;06/11 111 1111&lt;/font&gt;&lt;font style=&quot;font-size: 11px;&quot; color=&quot;#00cc00&quot;&gt;&lt;br&gt;&lt;/font&gt;" style="text;html=1;align=center;verticalAlign=middle;whiteSpace=wrap;rounded=0;" vertex="1" parent="1">
          <mxGeometry x="190" y="90" width="80" height="30" as="geometry" />
        </mxCell>
        <mxCell id="786_mQaQIO7tlaPHeYwT-21" value="&lt;font color=&quot;#00cc00&quot;&gt;Elvitel&lt;/font&gt;" style="text;html=1;align=center;verticalAlign=middle;whiteSpace=wrap;rounded=0;" vertex="1" parent="1">
          <mxGeometry x="159.42" y="105" width="100" height="30" as="geometry" />
        </mxCell>
        <mxCell id="786_mQaQIO7tlaPHeYwT-23" value="" style="endArrow=none;html=1;rounded=0;exitX=1;exitY=0.5;exitDx=0;exitDy=0;entryX=1.001;entryY=0.469;entryDx=0;entryDy=0;strokeColor=#CFCFCF;entryPerimeter=0;" edge="1" parent="1" source="786_mQaQIO7tlaPHeYwT-6" target="786_mQaQIO7tlaPHeYwT-15">
          <mxGeometry width="50" height="50" relative="1" as="geometry">
            <mxPoint x="250" y="180" as="sourcePoint" />
            <mxPoint x="300" y="130" as="targetPoint" />
          </mxGeometry>
        </mxCell>
        <mxCell id="786_mQaQIO7tlaPHeYwT-24" value="" style="endArrow=none;html=1;rounded=0;exitX=0;exitY=0.5;exitDx=0;exitDy=0;entryX=1;entryY=0.5;entryDx=0;entryDy=0;strokeColor=#CFCFCF;" edge="1" parent="1">
          <mxGeometry width="50" height="50" relative="1" as="geometry">
            <mxPoint x="150" y="160" as="sourcePoint" />
            <mxPoint x="440" y="160" as="targetPoint" />
          </mxGeometry>
        </mxCell>
        <mxCell id="786_mQaQIO7tlaPHeYwT-25" value="" style="endArrow=none;html=1;rounded=0;exitX=0;exitY=0.5;exitDx=0;exitDy=0;entryX=1;entryY=0.5;entryDx=0;entryDy=0;strokeColor=#CFCFCF;" edge="1" parent="1">
          <mxGeometry width="50" height="50" relative="1" as="geometry">
            <mxPoint x="150" y="184.83" as="sourcePoint" />
            <mxPoint x="440" y="184.83" as="targetPoint" />
          </mxGeometry>
        </mxCell>
        <mxCell id="786_mQaQIO7tlaPHeYwT-26" value="&lt;font color=&quot;#00cc00&quot;&gt;Tétel 1&lt;/font&gt;" style="text;html=1;align=center;verticalAlign=middle;whiteSpace=wrap;rounded=0;" vertex="1" parent="1">
          <mxGeometry x="150" y="135" width="60" height="20" as="geometry" />
        </mxCell>
        <mxCell id="786_mQaQIO7tlaPHeYwT-27" value="&lt;font color=&quot;#00cc00&quot;&gt;Tétel 2&lt;br&gt;&lt;/font&gt;" style="text;html=1;align=center;verticalAlign=middle;whiteSpace=wrap;rounded=0;" vertex="1" parent="1">
          <mxGeometry x="150" y="160" width="60" height="20" as="geometry" />
        </mxCell>
        <mxCell id="786_mQaQIO7tlaPHeYwT-28" value="&lt;font color=&quot;#00cc00&quot;&gt;Tétel 3&lt;br&gt;&lt;/font&gt;" style="text;html=1;align=center;verticalAlign=middle;whiteSpace=wrap;rounded=0;" vertex="1" parent="1">
          <mxGeometry x="150" y="180" width="60" height="20" as="geometry" />
        </mxCell>
        <mxCell id="786_mQaQIO7tlaPHeYwT-30" value="" style="rounded=1;whiteSpace=wrap;html=1;fillColor=#000000;strokeColor=#CFCFCF;" vertex="1" parent="1">
          <mxGeometry x="149.71" y="215" width="290" height="140" as="geometry" />
        </mxCell>
        <mxCell id="786_mQaQIO7tlaPHeYwT-31" value="" style="rounded=1;whiteSpace=wrap;html=1;fillColor=#00CC00;fontColor=#00CC00;" vertex="1" parent="1">
          <mxGeometry x="159.71" y="220" width="20" height="15" as="geometry" />
        </mxCell>
        <mxCell id="786_mQaQIO7tlaPHeYwT-32" value="&lt;font style=&quot;font-size: 14px;&quot; color=&quot;#00cc00&quot;&gt;Minta János 1&lt;/font&gt;" style="text;html=1;align=center;verticalAlign=middle;whiteSpace=wrap;rounded=0;" vertex="1" parent="1">
          <mxGeometry x="189.71" y="220" width="90" height="30" as="geometry" />
        </mxCell>
        <mxCell id="786_mQaQIO7tlaPHeYwT-33" value="&lt;font style=&quot;font-size: 11px;&quot; color=&quot;#00cc00&quot;&gt;06/11 111 1111&lt;/font&gt;&lt;font style=&quot;font-size: 11px;&quot; color=&quot;#00cc00&quot;&gt;&lt;br&gt;&lt;/font&gt;" style="text;html=1;align=center;verticalAlign=middle;whiteSpace=wrap;rounded=0;" vertex="1" parent="1">
          <mxGeometry x="189.71" y="235" width="80" height="30" as="geometry" />
        </mxCell>
        <mxCell id="786_mQaQIO7tlaPHeYwT-34" value="&lt;font color=&quot;#00cc00&quot;&gt;Minta utca 1&lt;br&gt;&lt;/font&gt;" style="text;html=1;align=center;verticalAlign=middle;whiteSpace=wrap;rounded=0;" vertex="1" parent="1">
          <mxGeometry x="169.71" y="250" width="100" height="30" as="geometry" />
        </mxCell>
        <mxCell id="786_mQaQIO7tlaPHeYwT-35" value="&lt;font style=&quot;font-size: 16px;&quot;&gt;Kész&lt;/font&gt;" style="rounded=1;whiteSpace=wrap;html=1;fillColor=#00CC00;" vertex="1" parent="1">
          <mxGeometry x="333.71" y="220" width="100" height="30" as="geometry" />
        </mxCell>
        <mxCell id="786_mQaQIO7tlaPHeYwT-36" value="" style="endArrow=none;html=1;rounded=0;exitX=1;exitY=0.5;exitDx=0;exitDy=0;entryX=1.001;entryY=0.469;entryDx=0;entryDy=0;strokeColor=#CFCFCF;entryPerimeter=0;" edge="1" parent="1" target="786_mQaQIO7tlaPHeYwT-30">
          <mxGeometry width="50" height="50" relative="1" as="geometry">
            <mxPoint x="149.71" y="280" as="sourcePoint" />
            <mxPoint x="299.71" y="275" as="targetPoint" />
          </mxGeometry>
        </mxCell>
        <mxCell id="786_mQaQIO7tlaPHeYwT-37" value="" style="endArrow=none;html=1;rounded=0;exitX=0;exitY=0.5;exitDx=0;exitDy=0;entryX=1;entryY=0.5;entryDx=0;entryDy=0;strokeColor=#CFCFCF;" edge="1" parent="1">
          <mxGeometry width="50" height="50" relative="1" as="geometry">
            <mxPoint x="149.71" y="305" as="sourcePoint" />
            <mxPoint x="439.71" y="305" as="targetPoint" />
          </mxGeometry>
        </mxCell>
        <mxCell id="786_mQaQIO7tlaPHeYwT-38" value="" style="endArrow=none;html=1;rounded=0;exitX=0;exitY=0.5;exitDx=0;exitDy=0;entryX=1;entryY=0.5;entryDx=0;entryDy=0;strokeColor=#CFCFCF;" edge="1" parent="1">
          <mxGeometry width="50" height="50" relative="1" as="geometry">
            <mxPoint x="149.71" y="329.83000000000004" as="sourcePoint" />
            <mxPoint x="439.71" y="329.83000000000004" as="targetPoint" />
          </mxGeometry>
        </mxCell>
        <mxCell id="786_mQaQIO7tlaPHeYwT-39" value="&lt;font color=&quot;#00cc00&quot;&gt;Tétel 1&lt;/font&gt;" style="text;html=1;align=center;verticalAlign=middle;whiteSpace=wrap;rounded=0;" vertex="1" parent="1">
          <mxGeometry x="149.71" y="280" width="60" height="20" as="geometry" />
        </mxCell>
        <mxCell id="786_mQaQIO7tlaPHeYwT-40" value="&lt;font color=&quot;#00cc00&quot;&gt;Tétel 2&lt;br&gt;&lt;/font&gt;" style="text;html=1;align=center;verticalAlign=middle;whiteSpace=wrap;rounded=0;" vertex="1" parent="1">
          <mxGeometry x="149.71" y="305" width="60" height="20" as="geometry" />
        </mxCell>
        <mxCell id="786_mQaQIO7tlaPHeYwT-41" value="&lt;font color=&quot;#00cc00&quot;&gt;Tétel 3&lt;br&gt;&lt;/font&gt;" style="text;html=1;align=center;verticalAlign=middle;whiteSpace=wrap;rounded=0;" vertex="1" parent="1">
          <mxGeometry x="149.71" y="325" width="60" height="20" as="geometry" />
        </mxCell>
        <mxCell id="786_mQaQIO7tlaPHeYwT-43" value="" style="rounded=1;whiteSpace=wrap;html=1;fillColor=#000000;strokeColor=#CFCFCF;" vertex="1" parent="1">
          <mxGeometry x="149.42" y="360" width="290" height="110" as="geometry" />
        </mxCell>
        <mxCell id="786_mQaQIO7tlaPHeYwT-44" value="" style="rounded=1;whiteSpace=wrap;html=1;fillColor=#333333;" vertex="1" parent="1">
          <mxGeometry x="159.42000000000002" y="365" width="20" height="15" as="geometry" />
        </mxCell>
        <mxCell id="786_mQaQIO7tlaPHeYwT-45" value="&lt;font style=&quot;font-size: 14px;&quot; color=&quot;#00cc00&quot;&gt;Minta János 1&lt;/font&gt;" style="text;html=1;align=center;verticalAlign=middle;whiteSpace=wrap;rounded=0;" vertex="1" parent="1">
          <mxGeometry x="189.42000000000002" y="365" width="90" height="30" as="geometry" />
        </mxCell>
        <mxCell id="786_mQaQIO7tlaPHeYwT-46" value="&lt;font style=&quot;font-size: 11px;&quot; color=&quot;#00cc00&quot;&gt;06/11 111 1111&lt;/font&gt;&lt;font style=&quot;font-size: 11px;&quot; color=&quot;#00cc00&quot;&gt;&lt;br&gt;&lt;/font&gt;" style="text;html=1;align=center;verticalAlign=middle;whiteSpace=wrap;rounded=0;" vertex="1" parent="1">
          <mxGeometry x="189.42000000000002" y="380" width="80" height="30" as="geometry" />
        </mxCell>
        <mxCell id="786_mQaQIO7tlaPHeYwT-47" value="&lt;font color=&quot;#00cc00&quot;&gt;Minta utca 1&lt;br&gt;&lt;/font&gt;" style="text;html=1;align=center;verticalAlign=middle;whiteSpace=wrap;rounded=0;" vertex="1" parent="1">
          <mxGeometry x="169.42000000000002" y="395" width="100" height="30" as="geometry" />
        </mxCell>
        <mxCell id="786_mQaQIO7tlaPHeYwT-48" value="&lt;font style=&quot;font-size: 16px;&quot;&gt;16:40&lt;/font&gt;" style="rounded=1;whiteSpace=wrap;html=1;fillColor=#333333;" vertex="1" parent="1">
          <mxGeometry x="333.42" y="365" width="100" height="30" as="geometry" />
        </mxCell>
        <mxCell id="786_mQaQIO7tlaPHeYwT-49" value="" style="endArrow=none;html=1;rounded=0;exitX=1;exitY=0.5;exitDx=0;exitDy=0;entryX=0.999;entryY=0.582;entryDx=0;entryDy=0;strokeColor=#CFCFCF;entryPerimeter=0;" edge="1" parent="1" target="786_mQaQIO7tlaPHeYwT-43">
          <mxGeometry width="50" height="50" relative="1" as="geometry">
            <mxPoint x="149.42000000000002" y="425" as="sourcePoint" />
            <mxPoint x="299.42" y="420" as="targetPoint" />
          </mxGeometry>
        </mxCell>
        <mxCell id="786_mQaQIO7tlaPHeYwT-50" value="" style="endArrow=none;html=1;rounded=0;exitX=0;exitY=0.5;exitDx=0;exitDy=0;entryX=1;entryY=0.5;entryDx=0;entryDy=0;strokeColor=#CFCFCF;" edge="1" parent="1">
          <mxGeometry width="50" height="50" relative="1" as="geometry">
            <mxPoint x="149.42000000000002" y="450" as="sourcePoint" />
            <mxPoint x="439.42" y="450" as="targetPoint" />
          </mxGeometry>
        </mxCell>
        <mxCell id="786_mQaQIO7tlaPHeYwT-51" value="" style="endArrow=none;html=1;rounded=0;exitX=0;exitY=0.5;exitDx=0;exitDy=0;entryX=1;entryY=0.5;entryDx=0;entryDy=0;strokeColor=#CFCFCF;" edge="1" parent="1">
          <mxGeometry width="50" height="50" relative="1" as="geometry">
            <mxPoint x="149.42000000000002" y="474.83000000000004" as="sourcePoint" />
            <mxPoint x="439.42" y="474.83000000000004" as="targetPoint" />
          </mxGeometry>
        </mxCell>
        <mxCell id="786_mQaQIO7tlaPHeYwT-52" value="&lt;font color=&quot;#00cc00&quot;&gt;Tétel 1&lt;/font&gt;" style="text;html=1;align=center;verticalAlign=middle;whiteSpace=wrap;rounded=0;" vertex="1" parent="1">
          <mxGeometry x="149.42000000000002" y="425" width="60" height="20" as="geometry" />
        </mxCell>
        <mxCell id="786_mQaQIO7tlaPHeYwT-53" value="&lt;font color=&quot;#00cc00&quot;&gt;Tétel 2&lt;br&gt;&lt;/font&gt;" style="text;html=1;align=center;verticalAlign=middle;whiteSpace=wrap;rounded=0;" vertex="1" parent="1">
          <mxGeometry x="149.42000000000002" y="450" width="60" height="20" as="geometry" />
        </mxCell>
        <mxCell id="786_mQaQIO7tlaPHeYwT-56" value="&lt;font color=&quot;#00cc00&quot;&gt;&lt;br&gt;&lt;font style=&quot;font-size: 23px;&quot;&gt;Futárok&lt;br&gt;&lt;/font&gt;&lt;/font&gt;&lt;div&gt;&lt;font color=&quot;#00cc00&quot;&gt;&lt;br&gt;&lt;/font&gt;&lt;/div&gt;" style="rounded=0;whiteSpace=wrap;html=1;fillColor=#000000;strokeColor=#00CC00;" vertex="1" parent="1">
          <mxGeometry x="439.42" y="20" width="280" height="30" as="geometry" />
        </mxCell>
        <mxCell id="786_mQaQIO7tlaPHeYwT-69" value="" style="shape=cross;whiteSpace=wrap;html=1;rotation=45;" vertex="1" parent="1">
          <mxGeometry x="415" y="140" width="19" height="20" as="geometry" />
        </mxCell>
        <mxCell id="786_mQaQIO7tlaPHeYwT-70" value="" style="shape=cross;whiteSpace=wrap;html=1;rotation=45;" vertex="1" parent="1">
          <mxGeometry x="415" y="160" width="19" height="20" as="geometry" />
        </mxCell>
        <mxCell id="786_mQaQIO7tlaPHeYwT-71" value="" style="shape=cross;whiteSpace=wrap;html=1;rotation=45;" vertex="1" parent="1">
          <mxGeometry x="415" y="190" width="19" height="20" as="geometry" />
        </mxCell>
        <mxCell id="786_mQaQIO7tlaPHeYwT-72" value="" style="shape=cross;whiteSpace=wrap;html=1;rotation=45;" vertex="1" parent="1">
          <mxGeometry x="415" y="280" width="19" height="20" as="geometry" />
        </mxCell>
        <mxCell id="786_mQaQIO7tlaPHeYwT-73" value="" style="shape=cross;whiteSpace=wrap;html=1;rotation=45;" vertex="1" parent="1">
          <mxGeometry x="415" y="305" width="19" height="20" as="geometry" />
        </mxCell>
        <mxCell id="786_mQaQIO7tlaPHeYwT-74" value="" style="shape=cross;whiteSpace=wrap;html=1;rotation=45;" vertex="1" parent="1">
          <mxGeometry x="415" y="330" width="19" height="20" as="geometry" />
        </mxCell>
        <mxCell id="786_mQaQIO7tlaPHeYwT-75" value="" style="shape=cross;whiteSpace=wrap;html=1;rotation=45;" vertex="1" parent="1">
          <mxGeometry x="413.71000000000004" y="425" width="19" height="20" as="geometry" />
        </mxCell>
        <mxCell id="786_mQaQIO7tlaPHeYwT-76" value="" style="shape=cross;whiteSpace=wrap;html=1;rotation=45;" vertex="1" parent="1">
          <mxGeometry x="413.71000000000004" y="450" width="19" height="20" as="geometry" />
        </mxCell>
        <mxCell id="786_mQaQIO7tlaPHeYwT-77" value="&lt;div&gt;&lt;font color=&quot;#00cc00&quot;&gt;Futárok&lt;br&gt;&lt;/font&gt;&lt;/div&gt;" style="rounded=1;whiteSpace=wrap;html=1;fillColor=#000000;" vertex="1" parent="1">
          <mxGeometry x="10" y="170" width="130" height="30" as="geometry" />
        </mxCell>
        <mxCell id="786_mQaQIO7tlaPHeYwT-78" value="" style="rounded=0;whiteSpace=wrap;html=1;fillColor=#000000;strokeColor=#CFCFCF;" vertex="1" parent="1">
          <mxGeometry x="440" y="50" width="280.58" height="70" as="geometry" />
        </mxCell>
        <mxCell id="786_mQaQIO7tlaPHeYwT-79" value="&lt;font style=&quot;font-size: 16px;&quot; color=&quot;#00cc00&quot;&gt;Futár 1&lt;/font&gt;" style="text;html=1;align=center;verticalAlign=middle;whiteSpace=wrap;rounded=0;" vertex="1" parent="1">
          <mxGeometry x="450" y="55" width="60" height="30" as="geometry" />
        </mxCell>
        <mxCell id="786_mQaQIO7tlaPHeYwT-80" value="&lt;font style=&quot;font-size: 15px;&quot;&gt;Étteremben&lt;/font&gt;" style="rounded=1;whiteSpace=wrap;html=1;fillColor=#00CC00;" vertex="1" parent="1">
          <mxGeometry x="590" y="55" width="120" height="35" as="geometry" />
        </mxCell>
        <mxCell id="786_mQaQIO7tlaPHeYwT-82" value="" style="rounded=0;whiteSpace=wrap;html=1;fillColor=#000000;strokeColor=#CFCFCF;" vertex="1" parent="1">
          <mxGeometry x="440" y="120" width="280.58" height="70" as="geometry" />
        </mxCell>
        <mxCell id="786_mQaQIO7tlaPHeYwT-83" value="&lt;font style=&quot;font-size: 16px;&quot; color=&quot;#00cc00&quot;&gt;Futár 2&lt;br&gt;&lt;/font&gt;" style="text;html=1;align=center;verticalAlign=middle;whiteSpace=wrap;rounded=0;" vertex="1" parent="1">
          <mxGeometry x="450" y="125" width="60" height="30" as="geometry" />
        </mxCell>
        <mxCell id="786_mQaQIO7tlaPHeYwT-84" value="&lt;font style=&quot;font-size: 15px;&quot;&gt;Offline&lt;/font&gt;" style="rounded=1;whiteSpace=wrap;html=1;fillColor=#333333;" vertex="1" parent="1">
          <mxGeometry x="590" y="125" width="120" height="35" as="geometry" />
        </mxCell>
        <mxCell id="786_mQaQIO7tlaPHeYwT-85" value="" style="rounded=0;whiteSpace=wrap;html=1;fillColor=#000000;strokeColor=#CFCFCF;" vertex="1" parent="1">
          <mxGeometry x="440" y="190" width="280.58" height="70" as="geometry" />
        </mxCell>
        <mxCell id="786_mQaQIO7tlaPHeYwT-86" value="&lt;font style=&quot;font-size: 16px;&quot; color=&quot;#00cc00&quot;&gt;Futár 3&lt;br&gt;&lt;/font&gt;" style="text;html=1;align=center;verticalAlign=middle;whiteSpace=wrap;rounded=0;" vertex="1" parent="1">
          <mxGeometry x="450" y="195" width="60" height="30" as="geometry" />
        </mxCell>
        <mxCell id="786_mQaQIO7tlaPHeYwT-87" value="&lt;font style=&quot;font-size: 15px;&quot;&gt;Úton&lt;/font&gt;" style="rounded=1;whiteSpace=wrap;html=1;fillColor=#827C14;" vertex="1" parent="1">
          <mxGeometry x="590" y="195" width="120" height="35" as="geometry" />
        </mxCell>
        <mxCell id="786_mQaQIO7tlaPHeYwT-88" value="&lt;font style=&quot;font-size: 16px;&quot;&gt;Kész&lt;/font&gt;" style="rounded=1;whiteSpace=wrap;html=1;fillColor=#00CC00;" vertex="1" parent="1">
          <mxGeometry x="332.71" y="75" width="100" height="30" as="geometry" />
        </mxCell>
        <mxCell id="786_mQaQIO7tlaPHeYwT-89" value="" style="rounded=1;whiteSpace=wrap;html=1;fillColor=#00CC00;fontColor=#00CC00;" vertex="1" parent="1">
          <mxGeometry x="160" y="75" width="20" height="15" as="geometry" />
        </mxCell>
        <mxCell id="786_mQaQIO7tlaPHeYwT-90" value="" style="rounded=1;whiteSpace=wrap;html=1;fillColor=#00CC00;fontColor=#00CC00;" vertex="1" parent="1">
          <mxGeometry x="159.71" y="365" width="20" height="15" as="geometry" />
        </mxCell>
        <mxCell id="786_mQaQIO7tlaPHeYwT-92" value="&lt;font style=&quot;font-size: 16px;&quot;&gt;Kész&lt;/font&gt;" style="rounded=1;whiteSpace=wrap;html=1;fillColor=#00CC00;" vertex="1" parent="1">
          <mxGeometry x="332.71" y="365" width="100" height="30" as="geometry" />
        </mxCell>
        <mxCell id="786_mQaQIO7tlaPHeYwT-93" value="&lt;font style=&quot;font-size: 15px;&quot;&gt;Futár kiválasztása&lt;/font&gt;" style="rounded=1;whiteSpace=wrap;html=1;fillColor=#333333;" vertex="1" parent="1">
          <mxGeometry x="299.42" y="250" width="134" height="30" as="geometry" />
        </mxCell>
        <mxCell id="786_mQaQIO7tlaPHeYwT-96" value="&lt;font style=&quot;font-size: 15px;&quot;&gt;Futár 3&lt;br&gt;&lt;/font&gt;" style="rounded=1;whiteSpace=wrap;html=1;fillColor=#827C14;" vertex="1" parent="1">
          <mxGeometry x="300" y="395" width="134" height="30" as="geometry" />
        </mxCell>
      </root>
    </mxGraphModel>
  </diagram>
</mxfile>
